# xmcd
#
# Track frame offsets: 
#        150
#        25701
#        40972
#        60224
#        87289
#        104389
#        127460
#        145956
#        163926
#        188758
#        206458
#
# Disc length: 3033 seconds
#
# Revision: 1
# Processed by: cddbd v1.5.2PL0 Copyright (c) Steve Scherf et al.
# Submitted via: ExactAudioCopy v1.3
#
DISCID=980bd70b
DTITLE=ДиДюЛя - Пещерный город Inkerman
DYEAR=2006
DGENRE=Flamenco
TTITLE0=Тайна скал, ветров туман
TTITLE1=Пещерный город Инкерман
TTITLE2=Таял звук по капле где-то
TTITLE3=Винил крутил времён вендетту
TTITLE4=Лёгкий бриз вином по венам
TTITLE5=Красиво, хорошо, блаженно
TTITLE6=Осенний лист один печальный
TTITLE7=В изгнании молчит о тайне
TTITLE8=Океан ласкает гребни
TTITLE9=Поезд в Барселону дремлет
TTITLE10=Комета продолжает век
EXTD=
EXTT0=
EXTT1=
EXTT2=
EXTT3=
EXTT4=
EXTT5=
EXTT6=
EXTT7=
EXTT8=
EXTT9=
EXTT10=
PLAYORDER=
